name D:\school\WTK\thesis\model\3dpredictsim\Results\batch_windlass\Pog_s1_tmt_aCst_d05_k1000_WL20_ig24.mot
datacolumns 128
datarows 4
range 0.00000000 0.03133804
endheader
time	pelvis_tilt	pelvis_list	pelvis_rotation	pelvis_tx	pelvis_ty	pelvis_tz	hip_flexion_l	hip_adduction_l	hip_rotation_l	hip_flexion_r	hip_adduction_r	hip_rotation_r	knee_angle_l	knee_angle_r	ankle_angle_l	ankle_angle_r	subtalar_angle_l	subtalar_angle_r	tmt_angle_l	tmt_angle_r	mtp_angle_l	mtp_angle_r	lumbar_extension	lumbar_bending	lumbar_rotation	arm_flex_l	arm_add_l	arm_rot_l	arm_flex_r	arm_add_r	arm_rot_r	elbow_flex_l	elbow_flex_r	pro_sup_l	pro_sup_r	glut_med1_l/activation	glut_med2_l/activation	glut_med3_l/activation	glut_min1_l/activation	glut_min2_l/activation	glut_min3_l/activation	semimem_l/activation	semiten_l/activation	bifemlh_l/activation	bifemsh_l/activation	sar_l/activation	add_long_l/activation	add_brev_l/activation	add_mag1_l/activation	add_mag2_l/activation	add_mag3_l/activation	tfl_l/activation	pect_l/activation	grac_l/activation	glut_max1_l/activation	glut_max2_l/activation	glut_max3_l/activation	iliacus_l/activation	psoas_l/activation	quad_fem_l/activation	gem_l/activation	peri_l/activation	rect_fem_l/activation	vas_med_l/activation	vas_int_l/activation	vas_lat_l/activation	med_gas_l/activation	lat_gas_l/activation	soleus_l/activation	tib_post_l/activation	flex_dig_l/activation	flex_hal_l/activation	tib_ant_l/activation	per_brev_l/activation	per_long_l/activation	per_tert_l/activation	ext_dig_l/activation	ext_hal_l/activation	ercspn_l/activation	intobl_l/activation	extobl_l/activation	glut_med1_r/activation	glut_med2_r/activation	glut_med3_r/activation	glut_min1_r/activation	glut_min2_r/activation	glut_min3_r/activation	semimem_r/activation	semiten_r/activation	bifemlh_r/activation	bifemsh_r/activation	sar_r/activation	add_long_r/activation	add_brev_r/activation	add_mag1_r/activation	add_mag2_r/activation	add_mag3_r/activation	tfl_r/activation	pect_r/activation	grac_r/activation	glut_max1_r/activation	glut_max2_r/activation	glut_max3_r/activation	iliacus_r/activation	psoas_r/activation	quad_fem_r/activation	gem_r/activation	peri_r/activation	rect_fem_r/activation	vas_med_r/activation	vas_int_r/activation	vas_lat_r/activation	med_gas_r/activation	lat_gas_r/activation	soleus_r/activation	tib_post_r/activation	flex_dig_r/activation	flex_hal_r/activation	tib_ant_r/activation	per_brev_r/activation	per_long_r/activation	per_tert_r/activation	ext_dig_r/activation	ext_hal_r/activation	ercspn_r/activation	intobl_r/activation	extobl_r/activation	
          0.00000000	         -2.92219490	         -1.27213849	          5.43015739	          0.00000000	          0.85917392	         -0.00126185	        -17.72538367	         -1.15879389	          8.20040760	         31.20484742	          2.38184297	         -1.93900995	         -9.70202506	        -19.11568822	         -0.82180951	         -1.00357496	         12.33571408	         -0.89583490	         -5.17088684	         -0.05474757	         27.10670363	          0.39891956	         -1.02326804	         -0.39726555	         -1.66220694	          4.03041160	        -13.46945069	         14.65765736	         -8.41808757	        -13.60575219	          6.73550655	         33.29945467	         18.77264889	         86.51662706	         86.51662706	          0.28190170	          0.08328392	          0.05000022	          0.30598881	          0.19192563	          0.08727428	          0.05000267	          0.05000026	          0.05000016	          0.06894894	          0.08549525	          0.13025048	          0.05059791	          0.05000134	          0.05000600	          0.05000129	          0.25852029	          0.06167006	          0.05000045	          0.05000257	          0.05000184	          0.05000166	          0.29175669	          0.49751344	          0.05000013	          0.05000022	          0.05000005	          0.19132313	          0.09514642	          0.07632246	          0.08552669	          0.27554650	          0.34862397	          0.22899419	          0.19143761	          0.19104472	          0.25651378	          0.05000000	          0.09481120	          0.15999724	          0.05000010	          0.05000002	          0.05000008	          0.05000001	          0.05000025	          0.05000010	          0.05869962	          0.05000042	          0.05005655	          0.05000038	          0.05000040	          0.05000114	          0.05870505	          0.05870511	          0.09246433	          0.05000077	          0.05000046	          0.09930247	          0.14380757	          0.16483288	          0.17264264	          0.12783889	          0.05000055	          0.05858058	          0.05870669	          0.05002102	          0.06892627	          0.13399462	          0.05746018	          0.05575678	          0.25726758	          0.05245950	          0.05000070	          0.05000006	          0.13642999	          0.13967800	          0.11611479	          0.05870503	          0.05870504	          0.05870501	          0.05000001	          0.05000183	          0.05050944	          0.42621769	          0.24975547	          0.15240127	          0.33178103	          0.57636373	          0.05000005	          0.05000001	          0.10738563	          0.11155677	
          0.01044601	         -2.91078737	         -1.38458319	          5.69186306	          0.01591151	          0.85810294	         -0.00107906	        -17.44144978	         -1.45207074	          7.97805627	         30.59648694	          2.78936948	         -1.70710386	        -11.76724350	        -19.06433166	         -1.72863315	         -1.40225346	         13.29837224	         -1.54042720	         -5.57086108	         -0.09330067	         27.90447032	          0.59234167	         -0.82401815	         -0.14433107	         -1.72238242	          3.78398521	        -13.49717238	         14.99463121	         -9.34455654	        -13.60731501	          6.51028394	         34.18808011	         18.63474307	         86.51662706	         86.51662706	          0.24010025	          0.07093426	          0.05000020	          0.26061571	          0.16346618	          0.07433294	          0.05001445	          0.05000036	          0.05000067	          0.05872494	          0.07281787	          0.21194595	          0.15600394	          0.10290919	          0.05000421	          0.12527089	          0.22018603	          0.10007703	          0.05000366	          0.05000082	          0.05000047	          0.05000050	          0.24849388	          0.42776958	          0.05000017	          0.05002441	          0.05870502	          0.16295304	          0.08103806	          0.15770583	          0.15377015	          0.23468738	          0.29692864	          0.19503803	          0.16305051	          0.16271599	          0.21847697	          0.05870027	          0.08075226	          0.13627225	          0.05000009	          0.08572836	          0.05000039	          0.05000003	          0.06892578	          0.06053008	          0.05000006	          0.05000025	          0.07249377	          0.05000012	          0.05000022	          0.05000023	          0.05000006	          0.05000017	          0.07875337	          0.05000015	          0.05002671	          0.08457776	          0.12248336	          0.33685888	          0.25216732	          0.11436673	          0.05000034	          0.05000145	          0.05000169	          0.05870472	          0.05870571	          0.13065819	          0.05000021	          0.05882053	          0.47928828	          0.08663184	          0.05909754	          0.06892559	          0.25284562	          0.24442214	          0.21001953	          0.05000002	          0.05000004	          0.05000000	          0.05000022	          0.05115261	          0.05000018	          0.55569849	          0.21272076	          0.12980262	          0.45030013	          0.59848386	          0.07265839	          0.05000000	          0.09146207	          0.09501469	
          0.02089203	         -2.89559248	         -1.50609316	          5.93097324	          0.03205066	          0.85688581	         -0.00091630	        -17.08598298	         -1.73891068	          7.74034575	         29.81229720	          3.15904146	         -1.39512831	        -13.97011428	        -19.45680211	         -2.69817772	         -1.55149351	         14.18353652	         -2.23812454	         -5.89252848	         -0.25369821	         28.27452344	          0.74789241	         -0.60733460	          0.12452140	         -1.77195875	          3.47468487	        -13.53223301	         15.28120830	        -10.26948393	        -13.61828689	          6.35555287	         35.07222791	         18.48341197	         86.51662706	         86.51662706	          0.32634307	          0.06041587	          0.05000006	          0.22197078	          0.13922682	          0.06331058	          0.06579770	          0.05000035	          0.05000031	          0.05001699	          0.06202029	          0.18781238	          0.32429288	          0.08765010	          0.05870824	          0.10669813	          0.20652439	          0.08524832	          0.05000166	          0.05002259	          0.05005786	          0.05870269	          0.21164627	          0.40183752	          0.05000053	          0.05000036	          0.05000006	          0.13878974	          0.07526968	          0.13432073	          0.13096862	          0.19988701	          0.25289889	          0.16611702	          0.13887276	          0.13858791	          0.18608039	          0.16490724	          0.16348703	          0.16353239	          0.05003143	          0.21124520	          0.15836056	          0.06904838	          0.05870520	          0.05870507	          0.30149796	          0.30084448	          0.38064605	          0.05000276	          0.05000033	          0.34209807	          0.08747299	          0.05000034	          0.10180998	          0.05000005	          0.05000026	          0.07785594	          0.22958688	          0.28690827	          0.21544064	          0.15776716	          0.05000020	          0.06892661	          0.10804205	          0.05000009	          0.05000064	          0.14298335	          0.05870468	          0.05009852	          0.40821755	          0.07378583	          0.22118361	          0.05870504	          0.23629800	          0.24284621	          0.20492224	          0.05870498	          0.05870497	          0.05870500	          0.05000017	          0.05000040	          0.05870444	          0.52704841	          0.18117771	          0.11055499	          0.38352796	          0.57640644	          0.06188432	          0.05000002	          0.08620003	          0.08092554	
          0.03133804	         -2.87933324	         -1.63241486	          6.14127180	          0.04818791	          0.85560104	         -0.00075442	        -16.61832172	         -2.01017243	          7.49796973	         28.87779381	          3.50830795	         -1.07446150	        -16.36765749	        -19.79315116	         -3.64256228	         -1.48011056	         14.97760161	         -2.97970337	         -6.00981899	         -0.38912653	         27.84600130	          0.95128494	         -0.39436694	          0.40202268	         -1.81077748	          3.14164924	        -13.57285668	         15.53115607	        -11.13782043	        -13.63571949	          6.29565174	         35.92414616	         18.28263730	         86.51662706	         86.51662706	          0.27795168	          0.05145719	          0.05000002	          0.18905692	          0.11858180	          0.05392270	          0.09092942	          0.05000022	          0.05000022	          0.05000014	          0.05868840	          0.20703792	          0.27620553	          0.07465310	          0.05000299	          0.09087689	          0.23662813	          0.07260784	          0.05000021	          0.05000039	          0.05000025	          0.05000018	          0.18026256	          0.36536281	          0.05000002	          0.05000021	          0.05000015	          0.11820961	          0.06410847	          0.11440321	          0.11154817	          0.17024697	          0.21539805	          0.14148453	          0.11828021	          0.11803770	          0.15848781	          0.20561094	          0.13924475	          0.13928324	          0.20244493	          0.24029208	          0.13487861	          0.10887276	          0.05000016	          0.05000007	          0.39663826	          0.45284021	          0.51186514	          0.24535028	          0.32750783	          0.32668112	          0.07450221	          0.10586971	          0.08671329	          0.06892572	          0.05000043	          0.06631118	          0.19554285	          0.24436454	          0.19799662	          0.16895873	          0.05000017	          0.05870610	          0.09202743	          0.27656237	          0.20284200	          0.16776971	          0.05000004	          0.05000004	          0.34768548	          0.06284507	          0.18838724	          0.05000003	          0.30352615	          0.31841659	          0.26682367	          0.05000001	          0.05000003	          0.05000000	          0.10916727	          0.05000059	          0.05000014	          0.62415750	          0.15431198	          0.09416147	          0.38567164	          0.56610531	          0.34998892	          0.06424970	          0.07341797	          0.06892559	
